<?xml version="1.0" standalone="no"?>
<!DOCTYPE svg PUBLIC "-//W3C//DTD SVG 20010904//EN"
 "http://www.w3.org/TR/2001/REC-SVG-20010904/DTD/svg10.dtd">
<svg version="1.0" xmlns="http://www.w3.org/2000/svg"
 width="20" height="20" class="flex-shrink-0 w-5 h-5 text-gray-500 transition duration-75 dark:text-gray-400 group-hover:text-gray-900 dark:group-hover:text-white" viewBox="0 0 512.000000 512.000000"
 preserveAspectRatio="xMidYMid meet">

<g transform="translate(0.000000,512.000000) scale(0.100000,-0.100000)"
fill="#000000" stroke="none">
<path d="M599 5092 c-34 -17 -65 -44 -84 -71 l-30 -43 0 -2018 0 -2018 30 -44
c20 -28 49 -52 84 -71 l55 -27 1152 0 1152 0 7 -62 c14 -121 81 -296 140 -367
32 -38 83 -43 115 -11 30 30 25 59 -25 152 -187 353 -54 774 301 951 334 168
751 31 917 -302 62 -122 81 -213 75 -354 -8 -188 -64 -313 -204 -453 -66 -67
-97 -90 -175 -127 -194 -95 -401 -101 -587 -16 -91 41 -121 38 -148 -13 -34
-66 29 -118 211 -170 67 -19 103 -22 220 -22 122 1 151 4 228 28 148 44 237
96 351 205 79 76 133 152 181 254 52 108 67 177 72 322 4 108 2 144 -16 217
-34 143 -99 269 -194 374 l-47 52 0 491 0 492 -25 24 c-31 32 -69 32 -100 0
l-25 -24 0 -435 0 -435 -72 34 c-119 57 -214 77 -358 77 -148 0 -239 -21 -366
-82 -233 -113 -409 -339 -456 -583 l-13 -67 -1147 0 c-1135 0 -1148 0 -1168
20 -20 20 -20 33 -20 1988 l0 1969 23 21 23 22 1753 0 1752 0 24 -25 25 -24 0
-1075 c0 -591 3 -1082 6 -1091 4 -10 21 -23 37 -30 39 -16 80 -3 96 31 17 37
16 2151 -1 2208 -16 54 -90 128 -144 144 -32 9 -445 12 -1807 12 l-1765 0 -53
-28z"/>
<path d="M1074 4627 c-35 -31 -38 -82 -5 -109 22 -17 51 -18 495 -18 l473 0
21 23 c27 29 28 67 3 98 l-19 24 -470 3 -470 3 -28 -24z"/>
<path d="M2370 4643 c-52 -20 -68 -85 -30 -123 19 -19 33 -20 213 -20 189 0
194 1 215 23 27 29 28 67 3 98 -19 24 -23 24 -203 26 -100 1 -190 -1 -198 -4z"/>
<path d="M1090 4243 c-37 -14 -74 -49 -91 -87 -18 -39 -19 -89 -19 -1104 0
-1023 1 -1064 19 -1100 24 -47 50 -70 98 -88 52 -18 2610 -19 2658 -1 47 18
71 39 97 82 l23 40 3 1048 c1 706 -1 1061 -8 1087 -6 22 -22 53 -36 70 -55 64
46 60 -1406 59 -728 0 -1330 -3 -1338 -6z m2634 -159 c3 -9 6 -476 6 -1038 0
-782 -3 -1025 -12 -1034 -7 -7 -28 -12 -47 -12 -33 0 -64 29 -521 484 -412
411 -491 486 -525 495 -93 25 -126 10 -261 -121 l-115 -111 -143 141 c-144
143 -163 155 -205 132 -10 -5 -24 -22 -30 -39 -19 -44 -2 -67 171 -237 211
-208 218 -208 410 -17 l118 118 423 -423 422 -422 -1140 2 -1140 3 -3 410 -2
410 202 202 c112 112 207 203 212 203 5 0 35 -25 67 -55 44 -42 65 -55 88 -55
41 0 71 31 71 73 0 27 -11 44 -67 99 -38 36 -78 71 -90 77 -32 16 -109 13
-146 -5 -18 -9 -101 -84 -184 -167 l-153 -152 0 528 0 527 1294 0 c1171 0
1294 -2 1300 -16z"/>
<path d="M2953 3711 c-151 -69 -201 -270 -100 -402 102 -133 291 -139 406 -14
40 43 71 120 71 175 0 92 -68 196 -154 236 -65 30 -162 32 -223 5z m180 -151
c30 -24 51 -81 43 -114 -10 -39 -45 -75 -85 -87 -73 -22 -141 34 -141 117 0
28 8 44 34 70 29 29 41 34 79 34 29 0 53 -7 70 -20z"/>
<path d="M1115 1594 c-51 -26 -71 -79 -51 -129 44 -104 196 -77 196 34 0 77
-80 129 -145 95z"/>
<path d="M1503 1603 c-12 -2 -34 -18 -48 -34 -58 -69 -13 -169 75 -169 60 0
100 41 100 102 0 35 -6 50 -27 70 -30 28 -64 39 -100 31z"/>
<path d="M1873 1603 c-12 -2 -34 -18 -48 -34 -57 -69 -13 -169 73 -169 79 0
129 76 96 145 -14 30 -67 67 -91 64 -4 -1 -18 -4 -30 -6z"/>
<path d="M3756 1209 c-26 -20 -26 -22 -26 -154 l0 -133 -136 -4 c-136 -3 -136
-3 -161 -32 -18 -22 -23 -35 -18 -55 14 -56 26 -60 174 -63 l136 -3 3 -136 c3
-148 7 -160 63 -174 20 -5 33 0 55 18 29 25 29 25 32 161 l4 136 133 0 c132 0
134 0 154 26 24 31 26 43 10 78 -17 36 -57 46 -185 46 l-114 0 0 114 c0 128
-10 168 -46 185 -35 16 -47 14 -78 -10z"/>
</g>
</svg>
