<?xml version="1.0" standalone="no"?>
<!DOCTYPE svg PUBLIC "-//W3C//DTD SVG 20010904//EN"
 "http://www.w3.org/TR/2001/REC-SVG-20010904/DTD/svg10.dtd">
<svg version="1.0" xmlns="http://www.w3.org/2000/svg"
 width="20" height="20" class="flex-shrink-0 w-5 h-5 text-gray-500 transition duration-75 dark:text-gray-400 group-hover:text-gray-900 dark:group-hover:text-white" viewBox="0 0 512.000000 512.000000"
 preserveAspectRatio="xMidYMid meet">

<g transform="translate(0.000000,512.000000) scale(0.100000,-0.100000)"
fill="#000000" stroke="none">
<path d="M3800 5106 c-252 -53 -463 -235 -553 -476 -14 -36 -28 -84 -32 -107
l-7 -43 -452 0 c-491 0 -515 -2 -620 -57 -39 -20 -290 -266 -1052 -1027 -1097
-1098 -1050 -1046 -1076 -1194 -15 -89 -3 -172 38 -258 24 -52 111 -143 718
-750 650 -651 695 -694 761 -725 66 -32 76 -34 180 -34 104 0 114 2 180 33 61
29 95 58 268 230 l197 196 0 -265 c0 -283 6 -332 53 -409 35 -57 107 -128 162
-160 108 -62 72 -60 1162 -60 691 0 1008 3 1045 11 119 25 225 99 285 200 66
111 63 28 63 1579 0 1158 -3 1414 -14 1456 -27 101 -63 149 -243 323 l-172
167 -3 395 c-4 346 -6 401 -22 449 -82 251 -265 433 -511 510 -90 27 -262 35
-355 16z m225 -206 c85 -12 210 -71 277 -129 58 -52 115 -137 147 -221 24 -62
25 -76 29 -340 l4 -274 -212 204 c-346 336 -340 332 -639 338 l-203 4 6 31
c11 58 74 171 123 221 88 90 193 146 311 166 66 11 78 11 157 0z m-825 -748
l0 -118 -39 -18 c-57 -25 -134 -112 -154 -176 -52 -160 19 -329 166 -395 75
-34 133 -40 205 -21 108 27 172 82 221 186 67 145 -2 335 -149 410 l-41 21 3
112 3 112 104 3 c136 4 200 -14 257 -72 26 -25 46 -57 53 -83 8 -30 11 -240 9
-720 -3 -637 -4 -680 -21 -713 -27 -49 -1962 -1986 -2012 -2013 -51 -27 -144
-28 -195 -3 -46 24 -1334 1309 -1367 1365 -32 53 -36 137 -10 191 10 20 439
456 1015 1032 873 872 1002 997 1037 1006 24 6 220 10 478 11 l437 1 0 -118z
m1316 -545 c216 -207 359 -352 370 -375 18 -36 19 -93 19 -1447 l0 -1410 -23
-43 c-29 -54 -89 -98 -155 -112 -37 -8 -335 -10 -1027 -8 l-975 3 -40 22 c-51
27 -90 68 -109 115 -14 31 -16 94 -16 395 l0 358 714 715 c787 789 757 753
776 902 5 40 10 354 10 698 l0 624 53 -50 c28 -28 210 -202 403 -387z m-1156
216 c86 -51 54 -193 -44 -193 -49 0 -81 17 -101 55 -50 92 54 192 145 138z"/>
</g>
</svg>
